<mxfile host="app.diagrams.net" modified="2022-11-08T07:15:56.726Z" agent="5.0 (Macintosh; Intel Mac OS X 10_15_7) AppleWebKit/537.36 (KHTML, like Gecko) Chrome/107.0.0.0 Safari/537.36" etag="in5dHAG3CjxH7ZCsJ0Wa" version="20.5.1" type="github">
  <diagram id="iNibahF6Y3yYVgzD8dor" name="Page-1">
    <mxGraphModel dx="2079" dy="1853" grid="1" gridSize="10" guides="1" tooltips="1" connect="1" arrows="1" fold="1" page="1" pageScale="1" pageWidth="827" pageHeight="1169" math="0" shadow="0">
      <root>
        <mxCell id="0" />
        <mxCell id="1" parent="0" />
        <mxCell id="NBC4jcn0iUTAf-bns_DX-7" value="" style="rounded=0;whiteSpace=wrap;html=1;" vertex="1" parent="1">
          <mxGeometry x="300" y="30" width="580" height="300" as="geometry" />
        </mxCell>
        <mxCell id="NBC4jcn0iUTAf-bns_DX-26" style="edgeStyle=orthogonalEdgeStyle;rounded=0;orthogonalLoop=1;jettySize=auto;html=1;entryX=0.5;entryY=0;entryDx=0;entryDy=0;" edge="1" parent="1" source="NBC4jcn0iUTAf-bns_DX-6" target="NBC4jcn0iUTAf-bns_DX-18">
          <mxGeometry relative="1" as="geometry" />
        </mxCell>
        <mxCell id="NBC4jcn0iUTAf-bns_DX-6" value="Supplier" style="shape=umlActor;verticalLabelPosition=bottom;verticalAlign=top;html=1;outlineConnect=0;" vertex="1" parent="1">
          <mxGeometry x="384" y="-100" width="30" height="60" as="geometry" />
        </mxCell>
        <mxCell id="NBC4jcn0iUTAf-bns_DX-16" value="NFS" style="ellipse;shape=cloud;whiteSpace=wrap;html=1;" vertex="1" parent="1">
          <mxGeometry x="930" y="90" width="120" height="80" as="geometry" />
        </mxCell>
        <mxCell id="NBC4jcn0iUTAf-bns_DX-27" style="edgeStyle=orthogonalEdgeStyle;rounded=0;orthogonalLoop=1;jettySize=auto;html=1;" edge="1" parent="1" source="NBC4jcn0iUTAf-bns_DX-18" target="NBC4jcn0iUTAf-bns_DX-19">
          <mxGeometry relative="1" as="geometry" />
        </mxCell>
        <mxCell id="NBC4jcn0iUTAf-bns_DX-18" value="&lt;span style=&quot;font-size: 12px;&quot;&gt;Certification Portal&lt;/span&gt;" style="whiteSpace=wrap;html=1;shadow=1;fontSize=18;" vertex="1" parent="1">
          <mxGeometry x="339" y="90" width="121" height="55" as="geometry" />
        </mxCell>
        <mxCell id="NBC4jcn0iUTAf-bns_DX-28" style="edgeStyle=orthogonalEdgeStyle;rounded=0;orthogonalLoop=1;jettySize=auto;html=1;entryX=0;entryY=0.5;entryDx=0;entryDy=0;" edge="1" parent="1" source="NBC4jcn0iUTAf-bns_DX-19" target="NBC4jcn0iUTAf-bns_DX-23">
          <mxGeometry relative="1" as="geometry" />
        </mxCell>
        <mxCell id="NBC4jcn0iUTAf-bns_DX-37" style="edgeStyle=orthogonalEdgeStyle;rounded=0;orthogonalLoop=1;jettySize=auto;html=1;entryX=0.25;entryY=0;entryDx=0;entryDy=0;" edge="1" parent="1" source="NBC4jcn0iUTAf-bns_DX-19" target="NBC4jcn0iUTAf-bns_DX-17">
          <mxGeometry relative="1" as="geometry" />
        </mxCell>
        <mxCell id="NBC4jcn0iUTAf-bns_DX-19" value="&lt;span style=&quot;font-size: 12px;&quot;&gt;Certification Service&lt;/span&gt;" style="whiteSpace=wrap;html=1;shadow=1;fontSize=18;" vertex="1" parent="1">
          <mxGeometry x="500" y="90" width="118.75" height="55" as="geometry" />
        </mxCell>
        <mxCell id="NBC4jcn0iUTAf-bns_DX-20" value="&lt;span style=&quot;font-size: 12px;&quot;&gt;Notification Service&lt;/span&gt;" style="whiteSpace=wrap;html=1;shadow=1;fontSize=18;" vertex="1" parent="1">
          <mxGeometry x="720.63" y="230" width="118.75" height="55" as="geometry" />
        </mxCell>
        <mxCell id="NBC4jcn0iUTAf-bns_DX-22" value="&lt;span style=&quot;font-size: 12px;&quot;&gt;SCT&lt;/span&gt;" style="whiteSpace=wrap;html=1;shadow=1;fontSize=18;" vertex="1" parent="1">
          <mxGeometry x="590" y="230" width="118.75" height="55" as="geometry" />
        </mxCell>
        <mxCell id="NBC4jcn0iUTAf-bns_DX-29" style="edgeStyle=orthogonalEdgeStyle;rounded=0;orthogonalLoop=1;jettySize=auto;html=1;entryX=0.07;entryY=0.4;entryDx=0;entryDy=0;entryPerimeter=0;" edge="1" parent="1" source="NBC4jcn0iUTAf-bns_DX-23" target="NBC4jcn0iUTAf-bns_DX-16">
          <mxGeometry relative="1" as="geometry" />
        </mxCell>
        <mxCell id="NBC4jcn0iUTAf-bns_DX-23" value="&lt;span style=&quot;font-size: 12px;&quot;&gt;Attachment Service&lt;/span&gt;" style="whiteSpace=wrap;html=1;shadow=1;fontSize=18;" vertex="1" parent="1">
          <mxGeometry x="668.75" y="90" width="118.75" height="55" as="geometry" />
        </mxCell>
        <mxCell id="NBC4jcn0iUTAf-bns_DX-24" value="" style="rounded=0;whiteSpace=wrap;html=1;" vertex="1" parent="1">
          <mxGeometry x="70" y="30" width="200" height="130" as="geometry" />
        </mxCell>
        <mxCell id="NBC4jcn0iUTAf-bns_DX-25" value="Supplier" style="shape=umlActor;verticalLabelPosition=bottom;verticalAlign=top;html=1;outlineConnect=0;" vertex="1" parent="1">
          <mxGeometry x="-20" y="260" width="30" height="60" as="geometry" />
        </mxCell>
        <mxCell id="NBC4jcn0iUTAf-bns_DX-31" value="" style="group" vertex="1" connectable="0" parent="1">
          <mxGeometry x="70" y="179" width="200" height="406" as="geometry" />
        </mxCell>
        <mxCell id="B5y0qz-TB3IfU01jpHbR-6" value="" style="rounded=0;whiteSpace=wrap;html=1;" parent="NBC4jcn0iUTAf-bns_DX-31" vertex="1">
          <mxGeometry width="200" height="406" as="geometry" />
        </mxCell>
        <mxCell id="NBC4jcn0iUTAf-bns_DX-10" value="AN" style="text;html=1;align=center;verticalAlign=middle;resizable=0;points=[];autosize=1;strokeColor=none;fillColor=none;" vertex="1" parent="NBC4jcn0iUTAf-bns_DX-31">
          <mxGeometry width="40" height="30" as="geometry" />
        </mxCell>
        <mxCell id="NBC4jcn0iUTAf-bns_DX-33" value="" style="group" vertex="1" connectable="0" parent="NBC4jcn0iUTAf-bns_DX-31">
          <mxGeometry x="40.629999999999995" y="80" width="118.75" height="55" as="geometry" />
        </mxCell>
        <mxCell id="NBC4jcn0iUTAf-bns_DX-21" value="" style="whiteSpace=wrap;html=1;shadow=1;fontSize=18;" vertex="1" parent="NBC4jcn0iUTAf-bns_DX-33">
          <mxGeometry width="118.75" height="55" as="geometry" />
        </mxCell>
        <mxCell id="NBC4jcn0iUTAf-bns_DX-13" value="OpenAPI" style="text;html=1;align=center;verticalAlign=middle;resizable=0;points=[];autosize=1;strokeColor=none;fillColor=none;" vertex="1" parent="NBC4jcn0iUTAf-bns_DX-33">
          <mxGeometry width="70" height="30" as="geometry" />
        </mxCell>
        <mxCell id="B5y0qz-TB3IfU01jpHbR-4" value="" style="group" parent="NBC4jcn0iUTAf-bns_DX-31" vertex="1" connectable="0">
          <mxGeometry x="70" y="190" width="60" height="110" as="geometry" />
        </mxCell>
        <mxCell id="B5y0qz-TB3IfU01jpHbR-2" value="" style="shape=cylinder3;whiteSpace=wrap;html=1;boundedLbl=1;backgroundOutline=1;size=15;" parent="B5y0qz-TB3IfU01jpHbR-4" vertex="1">
          <mxGeometry width="60" height="80" as="geometry" />
        </mxCell>
        <mxCell id="B5y0qz-TB3IfU01jpHbR-3" value="HANA" style="text;html=1;align=center;verticalAlign=middle;resizable=0;points=[];autosize=1;strokeColor=none;fillColor=none;" parent="B5y0qz-TB3IfU01jpHbR-4" vertex="1">
          <mxGeometry y="80" width="60" height="30" as="geometry" />
        </mxCell>
        <mxCell id="NBC4jcn0iUTAf-bns_DX-34" style="edgeStyle=orthogonalEdgeStyle;rounded=0;orthogonalLoop=1;jettySize=auto;html=1;exitX=0.5;exitY=1;exitDx=0;exitDy=0;" edge="1" parent="NBC4jcn0iUTAf-bns_DX-31" source="NBC4jcn0iUTAf-bns_DX-21" target="B5y0qz-TB3IfU01jpHbR-2">
          <mxGeometry relative="1" as="geometry" />
        </mxCell>
        <mxCell id="NBC4jcn0iUTAf-bns_DX-35" style="edgeStyle=orthogonalEdgeStyle;rounded=0;orthogonalLoop=1;jettySize=auto;html=1;exitX=0.25;exitY=1;exitDx=0;exitDy=0;entryX=1;entryY=0.5;entryDx=0;entryDy=0;" edge="1" parent="1" source="NBC4jcn0iUTAf-bns_DX-19" target="NBC4jcn0iUTAf-bns_DX-21">
          <mxGeometry relative="1" as="geometry" />
        </mxCell>
        <mxCell id="NBC4jcn0iUTAf-bns_DX-36" value="" style="group" vertex="1" connectable="0" parent="1">
          <mxGeometry x="440" y="370" width="410" height="80" as="geometry" />
        </mxCell>
        <mxCell id="NBC4jcn0iUTAf-bns_DX-11" value="" style="rounded=0;whiteSpace=wrap;html=1;" vertex="1" parent="NBC4jcn0iUTAf-bns_DX-36">
          <mxGeometry width="410" height="80" as="geometry" />
        </mxCell>
        <mxCell id="NBC4jcn0iUTAf-bns_DX-14" value="Kafka" style="text;html=1;align=center;verticalAlign=middle;resizable=0;points=[];autosize=1;strokeColor=none;fillColor=none;" vertex="1" parent="NBC4jcn0iUTAf-bns_DX-36">
          <mxGeometry width="50" height="30" as="geometry" />
        </mxCell>
        <mxCell id="NBC4jcn0iUTAf-bns_DX-17" value="&lt;span style=&quot;font-size: 12px;&quot;&gt;Notification Event topic&lt;/span&gt;" style="whiteSpace=wrap;html=1;shadow=1;fontSize=18;" vertex="1" parent="NBC4jcn0iUTAf-bns_DX-36">
          <mxGeometry x="90" y="12.5" width="118.75" height="55" as="geometry" />
        </mxCell>
        <mxCell id="NBC4jcn0iUTAf-bns_DX-38" style="edgeStyle=orthogonalEdgeStyle;rounded=0;orthogonalLoop=1;jettySize=auto;html=1;entryX=0.5;entryY=1;entryDx=0;entryDy=0;" edge="1" parent="1" source="NBC4jcn0iUTAf-bns_DX-17" target="NBC4jcn0iUTAf-bns_DX-20">
          <mxGeometry relative="1" as="geometry" />
        </mxCell>
      </root>
    </mxGraphModel>
  </diagram>
</mxfile>
